<?xml version="1.0" encoding="utf-8"?>
<!-- Generator: Adobe Illustrator 17.0.0, SVG Export Plug-In . SVG Version: 6.00 Build 0)  -->
<!DOCTYPE svg PUBLIC "-//W3C//DTD SVG 1.1//EN" "http://www.w3.org/Graphics/SVG/1.1/DTD/svg11.dtd">
<svg version="1.1" id="Calque_1" xmlns="http://www.w3.org/2000/svg" xmlns:xlink="http://www.w3.org/1999/xlink" x="0px" y="0px"
	 width="849.072px" height="361.086px" viewBox="0 0 849.072 361.086" enable-background="new 0 0 849.072 361.086"
	 xml:space="preserve">
<g>
	<path fill="#0CA8A8" d="M315.538,216.649c-4,3.842-8.46,6.954-13.313,9.417c-0.19,0.097-0.38,0.194-0.57,0.288
		c-6.135,3.025-12.906,5-20.333,5.837c-5.564,0.627-11.478,0.636-17.736,0.028c-26.711-2.609-39.584-19.434-52.035-35.704
		c-9.928-12.973-20.194-26.384-37.466-33.449c-9.753-3.987-20.757-5.913-31.398-7.775c-24.228-4.24-49.264-8.62-63.108-37.198
		c-6.864-14.175-5.785-36.12,2.388-54.831c-2.435,2.049-4.799,4.173-7.096,6.367c-2.028,5.931-3.359,12.164-4.103,18.35
		c0.714-6.119,2.043-12.329,4.103-18.35c-5.799,5.538-11.131,11.533-15.979,17.904c-9.691,14.763-10.176,26.269-9.188,38.27
		c1.519,18.417,11.248,36.525,24.791,46.128c8.444,5.991,17.111,9.151,26.289,12.496c1.467,0.537,2.934,1.072,4.4,1.618
		c18.761,7.001,38.164,14.239,51.846,38.298c5.949,10.463,9.558,20.296,12.743,28.974c8.225,22.403,15.595,36.752,48.529,47.061
		c19.379,6.065,38.05,4.843,55.826-3.55c30.855-20.366,46.547-51.884,51.939-81.336c1.475-5.943,2.566-12.018,3.309-18.185
		C325.735,204.617,321.196,211.218,315.538,216.649"/>
	<path fill="#964073" d="M251.282,311.089c-3.393,0.382-6.817,0.515-10.264,0.453c-0.205,0.001-0.412-0.014-0.616-0.015
		c-0.895-0.023-1.789-0.046-2.687-0.098c-7.205-0.272-14.433-1.462-21.623-3.713c-11.619-3.637-20.082-7.778-26.506-12.463
		c-14.826-10.129-20.692-23.025-26.705-39.405c-3.087-8.41-6.585-17.94-12.234-27.875c-12.363-21.74-30.496-28.506-48.032-35.049
		c-1.449-0.541-2.898-1.071-4.347-1.597c-9.228-3.366-18.77-6.846-28.019-13.405c-15.236-10.807-26.173-31.03-27.86-51.515
		c-0.324-3.946-0.181-8.143,0.334-12.416c-2.132,4.46-4.051,9.031-5.743,13.704c-7.671,21.186-10.736,44.406-8.043,68.313
		c9.349,83.008,84.22,142.721,167.229,133.372c14.425-1.625,28.124-5.269,40.903-10.549c5.743-2.374,11.313-5.056,16.653-8.08
		C252.91,310.867,252.099,310.997,251.282,311.089"/>
	<path fill="#E8C26F" d="M329.829,160.995c-1.553-12.724-4.682-24.862-9.107-36.291c-8.538-22.859-22.265-42.388-39.975-58.607
		c-22.563-20.664-50.344-32.549-80.085-36.859c-1.86-0.205-2.003,2.317-0.129,2.858c31.495,8.548,51.096,19.636,74.403,42.769
		c23.485,23.309,36.042,57.795,23.093,76.969c-6.364,7.244-14.905,11.965-25.398,13.099c-1.504,0.163-3.029,0.288-4.579,0.316
		c-18.685,0.276-25.622-8.966-34.406-20.669c-2.228-2.966-4.474-5.961-7.066-9.051c-13.423-16.009-29.133-22.894-50.943-22.319
		c-19.171,0.501-42.708-0.592-54.675-13.613c-6.516-7.098-8.986-16.818-7.55-29.723c1.174-10.556,6.715-22.243,15.353-32.955
		c-2.24,0.799-4.455,1.645-6.642,2.544c-9.104,3.741-17.727,8.326-25.785,13.657c-2.343,2.97-4.501,6.376-6.421,10.207
		c-8.871,17.727-10.465,39.39-3.871,52.682c12.439,25.082,33.578,28.577,58.056,32.625c11.059,1.83,22.478,3.717,33.004,7.906
		c19.185,7.641,30.198,21.753,40.848,35.402c12.7,16.283,23.671,30.343,47.222,32.421c19.324,1.697,34.808-3.01,46.029-13.99
		c9.819-9.605,15.883-23.311,19.529-38.141C330.557,168.505,330.288,164.761,329.829,160.995z"/>
	<path fill="#097979" d="M322.87,228.883c-26.91,28.698-65.141,46.652-107.587,46.652c-13.174,0-25.935-1.751-38.089-4.992
		c7.067,12.987,17.524,22.454,41.094,29.832c8.09,2.532,16.06,3.794,23.89,3.794c10.925,0,21.581-2.456,31.936-7.344
		C300.325,279.525,315.562,254.176,322.87,228.883"/>
	<path fill="#B7B7B7" d="M74.858,69.626c-5.799,5.538-11.131,11.533-15.979,17.904c-9.691,14.763-10.176,26.269-9.188,38.269
		c1.263,15.315,8.205,30.412,18.295,40.585c-10.084-10.175-17.02-25.27-18.283-40.58c-0.987-12.001-0.503-23.507,9.188-38.27
		c4.842-6.363,10.166-12.351,15.957-17.883C74.852,69.643,74.855,69.634,74.858,69.626 M80.879,65.876
		c-0.937,2.366-1.763,4.776-2.476,7.205c0.074-0.184,0.149-0.369,0.224-0.553C79.301,70.289,80.036,68.064,80.879,65.876
		 M81.954,63.259c-2.435,2.049-4.799,4.173-7.096,6.367c-0.003,0.009-0.006,0.017-0.009,0.026c0.007-0.007,0.015-0.014,0.022-0.021
		c-2.059,6.022-3.389,12.232-4.103,18.35c0.744-6.186,2.074-12.419,4.103-18.35c2.289-2.187,4.645-4.304,7.072-6.347
		C81.946,63.275,81.95,63.267,81.954,63.259"/>
	<path fill="#097979" d="M81.943,63.284c-2.427,2.043-4.782,4.16-7.072,6.347c-2.028,5.931-3.359,12.164-4.103,18.35
		c0.714-6.119,2.043-12.329,4.103-18.35c-0.007,0.007-0.015,0.014-0.022,0.021c-2.023,5.923-3.351,12.147-4.094,18.324
		c0.713-6.11,2.039-12.311,4.094-18.324c-5.791,5.532-11.115,11.52-15.957,17.883c-9.691,14.763-10.176,26.269-9.188,38.27
		c1.263,15.31,8.198,30.405,18.283,40.58c2.021,2.038,4.169,3.878,6.422,5.483c-4.303-13.847-6.622-28.567-6.622-43.829
		c0-19.431,3.789-37.968,10.617-54.956c0.713-2.43,1.54-4.839,2.476-7.205C81.215,65.006,81.569,64.141,81.943,63.284"/>
	<path fill="#B7B7B7" d="M206.779,304.433c2.859,1.137,5.954,2.231,9.313,3.282c7.19,2.251,14.418,3.441,21.623,3.713
		c0.898,0.053,1.793,0.075,2.687,0.098c0.198,0.001,0.398,0.015,0.598,0.015c0.006,0,0.012,0,0.018,0
		c0.538,0.01,1.075,0.015,1.612,0.015c2.903,0,5.789-0.145,8.652-0.467c0.807-0.091,1.608-0.218,2.411-0.334
		c0.006-0.003,0.011-0.006,0.017-0.009c-0.813,0.117-1.624,0.247-2.441,0.339c-2.864,0.323-5.75,0.467-8.652,0.467
		c-0.537,0-1.074-0.005-1.611-0.015c-0.006,0-0.012,0-0.018,0c-0.199,0-0.399-0.014-0.598-0.015
		c-0.895-0.023-1.789-0.046-2.687-0.098c-7.205-0.272-14.433-1.462-21.623-3.713C212.725,306.66,209.634,305.568,206.779,304.433
		 M72.172,179.24c2.062,1.365,4.136,2.588,6.216,3.702c-0.004-0.01-0.007-0.018-0.011-0.027
		C76.301,181.803,74.231,180.595,72.172,179.24 M42.711,113.985c-2.132,4.46-4.051,9.031-5.743,13.704
		c-7.671,21.187-10.736,44.406-8.043,68.313c6.445,57.225,44.047,103.384,93.971,123.471
		c-49.917-20.09-87.514-66.246-93.958-123.466c-2.693-23.907,0.372-47.127,8.043-68.313c1.687-4.66,3.6-9.218,5.725-13.666
		C42.707,114.014,42.709,114,42.711,113.985"/>
	<path fill="#6C2E53" d="M42.706,114.028c-2.125,4.448-4.037,9.006-5.725,13.666c-7.671,21.186-10.736,44.406-8.043,68.313
		c6.445,57.22,44.041,103.376,93.958,123.466c17.472,7.03,36.453,10.864,56.142,10.864c5.658,0,11.36-0.316,17.116-0.964
		c14.425-1.625,28.124-5.269,40.903-10.549c5.737-2.371,11.302-5.05,16.637-8.07c-0.803,0.116-1.605,0.243-2.411,0.334
		c-2.864,0.323-5.75,0.467-8.652,0.467c-0.537,0-1.074-0.005-1.612-0.015c-0.006,0-0.012,0-0.018,0
		c-0.199,0-0.399-0.014-0.598-0.015c-0.895-0.023-1.789-0.046-2.687-0.098c-7.205-0.272-14.433-1.462-21.623-3.713
		c-3.359-1.052-6.455-2.145-9.313-3.282c-7.035-2.797-12.636-5.854-17.205-9.186c-11.083-7.572-17.159-16.692-22.032-27.657
		c-40.624-13.896-73.237-45.007-89.153-84.649c-2.08-1.114-4.154-2.337-6.216-3.702c-0.647-0.426-1.292-0.866-1.936-1.323
		c-15.236-10.807-26.173-31.03-27.86-51.515C42.053,122.469,42.194,118.287,42.706,114.028"/>
</g>
<path fill="#E8C26F" d="M586.846,29.141c12.014-0.016,20.893,10.792,18.723,22.749c-1.156,6.371-3.81,12.137-7.371,17.444
	c-2.98,4.441-6.322,8.643-9.586,12.887c-1.086,1.412-1.944,1.41-3.058,0.126c-6.607-7.615-12.569-15.655-15.943-25.3
	c-1.704-4.87-2.4-9.826-0.723-14.891C571.444,34.433,578.707,29.152,586.846,29.141z M586.938,57.715
	c4.921-0.024,8.918-4.042,8.887-8.932c-0.031-4.824-4.145-8.873-9.013-8.874c-4.704,0-8.809,4.163-8.803,8.927
	C578.015,53.75,582.027,57.739,586.938,57.715z"/>
<g>
	<g>
		<path fill="#121212" d="M434.277,199.115c-10.04,0-19.18-1.608-27.432-4.829c-8.248-3.216-15.33-7.909-21.241-14.079
			s-10.486-13.784-13.714-22.835c-3.232-9.055-4.848-19.415-4.848-31.084s1.82-22.029,5.466-31.079
			c3.641-9.055,8.559-16.665,14.745-22.835c6.186-6.165,13.407-10.863,21.655-14.083c8.252-3.216,17.048-4.829,26.401-4.829
			c5.912,0,11.238,0.403,15.984,1.209c4.741,0.806,8.865,1.744,12.371,2.818c3.506,1.074,6.362,2.147,8.563,3.216
			c2.197,1.078,3.711,1.88,4.537,2.414l-5.777,16.095c-1.235-0.806-3.028-1.676-5.364-2.614c-2.336-0.938-4.983-1.88-7.937-2.818
			c-2.958-0.938-6.19-1.708-9.697-2.315c-3.506-0.602-7.045-0.906-10.621-0.906c-7.565,0-14.368,1.277-20.419,3.823
			c-6.051,2.55-11.206,6.238-15.464,11.066c-4.268,4.829-7.528,10.695-9.799,17.603c-2.271,6.908-3.404,14.654-3.404,23.234
			c0,8.317,0.998,15.895,2.991,22.735c1.992,6.84,4.983,12.706,8.972,17.603c3.984,4.897,8.972,8.684,14.954,11.365
			c5.981,2.686,12.957,4.022,20.935,4.022c9.209,0,16.839-0.938,22.89-2.818c6.051-1.875,10.588-3.551,13.611-5.028l5.159,16.095
			c-0.966,0.675-2.684,1.508-5.159,2.514c-2.475,1.006-5.568,1.98-9.279,2.917c-3.715,0.938-8.043,1.744-12.994,2.414
			C445.414,198.78,440.05,199.115,434.277,199.115z"/>
		<path fill="#121212" d="M595.846,196.098h-19.18V91.486h19.18V196.098z"/>
		<path fill="#121212" d="M691.846,185.639c-1.649,1.074-4.848,2.446-9.59,4.122c-4.746,1.681-10.282,2.514-16.602,2.514
			c-6.464,0-12.548-1.006-18.255-3.017s-10.69-5.128-14.949-9.354c-4.268-4.226-7.635-9.485-10.11-15.791
			s-3.711-13.811-3.711-22.531c0-7.646,1.166-14.654,3.506-21.023c2.336-6.369,5.74-11.873,10.207-16.498
			c4.468-4.629,9.933-8.249,16.398-10.863c6.46-2.618,13.746-3.923,21.864-3.923c8.935,0,16.737,0.639,23.406,1.912
			c6.669,1.273,12.274,2.446,16.811,3.52v93.346c0,16.09-4.263,27.759-12.789,35.002s-21.446,10.863-38.772,10.863
			c-6.738,0-13.096-0.535-19.077-1.608c-5.981-1.074-11.173-2.346-15.571-3.823l3.506-16.294c3.845,1.472,8.559,2.781,14.127,3.923
			c5.568,1.137,11.378,1.708,17.429,1.708c11.41,0,19.625-2.211,24.645-6.636c5.015-4.426,7.528-11.47,7.528-21.123V185.639z
			 M691.642,107.984c-1.927-0.535-4.509-1.037-7.737-1.508c-3.232-0.471-7.598-0.707-13.096-0.707
			c-10.314,0-18.251,3.289-23.819,9.861c-5.573,6.573-8.354,15.288-8.354,26.151c0,6.034,0.789,11.198,2.373,15.492
			c1.579,4.294,3.711,7.846,6.39,10.659c2.684,2.818,5.777,4.901,9.283,6.238c3.506,1.341,7.115,2.011,10.825,2.011
			c5.085,0,9.762-0.702,14.025-2.111c4.263-1.409,7.635-3.049,10.11-4.928V107.984z"/>
		<path fill="#121212" d="M731.709,143.996c0-9.254,1.375-17.336,4.124-24.244c2.749-6.908,6.395-12.638,10.932-17.2
			c4.537-4.557,9.762-7.977,15.673-10.26c5.912-2.279,11.963-3.42,18.149-3.42c14.438,0,25.505,4.394,33.209,13.177
			c7.695,8.783,11.549,22.164,11.549,40.134c0,0.802,0,1.844,0,3.117c0,1.277-0.074,2.451-0.209,3.52h-73.421
			c0.822,10.867,4.054,19.111,9.692,24.746c5.638,5.631,14.438,8.448,26.401,8.448c6.734,0,12.404-0.566,17.015-1.708
			c4.602-1.137,8.076-2.247,10.416-3.32l2.68,15.691c-2.341,1.205-6.432,2.482-12.274,3.823c-5.842,1.336-12.474,2.011-19.899,2.011
			c-9.353,0-17.429-1.377-24.237-4.122c-6.803-2.75-12.409-6.541-16.806-11.37c-4.402-4.829-7.667-10.559-9.799-17.2
			C732.773,159.184,731.709,151.91,731.709,143.996z M805.339,133.736c0.135-8.453-2.029-15.392-6.497-20.824
			c-4.472-5.431-10.621-8.149-18.46-8.149c-4.402,0-8.285,0.843-11.652,2.514c-3.372,1.681-6.223,3.859-8.559,6.541
			c-2.341,2.682-4.161,5.766-5.466,9.254c-1.31,3.488-2.169,7.039-2.577,10.663H805.339z"/>
	</g>
	<path fill="#121212" d="M553.294,91.386c-1.723-0.335-3.608-0.671-5.67-1.006c-2.062-0.335-4.161-0.603-6.293-0.806
		c-2.132-0.199-4.022-0.299-5.67-0.299c-8.387,0-15.952,0.702-22.686,2.111c-2.528,0.528-4.849,1.076-7.067,1.632
		c-5.772-3.047-10.403-3.273-10.403-3.273l0.557,17.773v88.58h19.18v-87.915c1.101-0.267,3.404-0.77,6.91-1.508
		c3.506-0.734,7.045-1.105,10.621-1.105c5.499,0,10.003,0.371,13.509,1.105c3.506,0.738,6.014,1.377,7.528,1.912l3.302-16.294
		C556.285,92.025,555.013,91.722,553.294,91.386z"/>
</g>
<g>
	<path fill="#121212" d="M378.315,281.934c-2.469-0.059-4.218-0.554-5.252-1.492c-1.033-0.934-1.547-2.394-1.546-4.37l0.03-25.018
		l4.004-0.634l-0.028,25.056c-0.002,0.613,0.056,1.122,0.171,1.523c0.113,0.401,0.3,0.721,0.559,0.962
		c0.258,0.24,0.603,0.422,1.033,0.544c0.429,0.118,0.96,0.22,1.591,0.3L378.315,281.934z"/>
	<path fill="#121212" d="M390.139,260.178c1.608,0,2.964,0.195,4.069,0.585c1.105,0.39,1.995,0.937,2.666,1.648
		c0.676,0.707,1.155,1.551,1.443,2.526c0.286,0.976,0.427,2.053,0.425,3.227l-0.014,13.03c-0.345,0.052-0.826,0.125-1.443,0.216
		c-0.617,0.094-1.31,0.181-2.087,0.261c-0.777,0.077-1.617,0.15-2.521,0.216s-1.802,0.098-2.692,0.098
		c-1.263-0.003-2.425-0.122-3.487-0.366c-1.061-0.24-1.981-0.624-2.755-1.147c-0.774-0.519-1.376-1.209-1.807-2.066
		c-0.43-0.854-0.643-1.882-0.641-3.084c0-1.15,0.253-2.14,0.756-2.969c0.502-0.826,1.187-1.495,2.047-2
		c0.862-0.505,1.866-0.878,3.016-1.119c1.148-0.24,2.354-0.359,3.617-0.355c0.402,0,0.819,0.017,1.249,0.059
		c0.43,0.042,0.84,0.094,1.228,0.16c0.387,0.07,0.725,0.129,1.011,0.185c0.288,0.052,0.488,0.094,0.603,0.118v-1.042
		c0.002-0.613-0.07-1.223-0.213-1.823c-0.143-0.603-0.401-1.136-0.774-1.607c-0.371-0.467-0.882-0.843-1.526-1.122
		c-0.646-0.282-1.486-0.422-2.52-0.425c-1.321,0-2.476,0.087-3.467,0.258c-0.99,0.171-1.73,0.352-2.218,0.537l-0.47-3.088
		c0.518-0.213,1.378-0.418,2.584-0.617C387.426,260.275,388.733,260.174,390.139,260.178z M390.461,278.86
		c0.948,0,1.788-0.017,2.52-0.059c0.732-0.038,1.342-0.112,1.831-0.22l0.007-6.213c-0.286-0.132-0.753-0.244-1.399-0.338
		c-0.646-0.098-1.429-0.143-2.347-0.146c-0.603,0-1.242,0.038-1.917,0.118c-0.674,0.08-1.291,0.247-1.85,0.502
		c-0.563,0.251-1.03,0.599-1.403,1.038c-0.373,0.439-0.561,1.021-0.561,1.742c-0.002,1.338,0.455,2.269,1.375,2.788
		C387.635,278.595,388.883,278.86,390.461,278.86z"/>
	<path fill="#121212" d="M428.397,279.505c-0.345,0.213-1.009,0.488-2,0.819c-0.993,0.331-2.147,0.498-3.467,0.498
		c-1.352-0.003-2.621-0.206-3.812-0.606c-1.19-0.401-2.232-1.025-3.119-1.868c-0.889-0.843-1.591-1.892-2.105-3.15
		c-0.517-1.255-0.774-2.753-0.772-4.492c0.002-1.523,0.247-2.917,0.735-4.185c0.49-1.272,1.202-2.366,2.138-3.286
		c0.934-0.92,2.075-1.641,3.424-2.161c1.352-0.519,2.873-0.781,4.567-0.777c1.868,0.003,3.494,0.132,4.889,0.387
		c1.39,0.258,2.558,0.491,3.506,0.704l-0.021,18.602c-0.003,3.206-0.892,5.53-2.676,6.973c-1.783,1.439-4.48,2.157-8.097,2.154
		c-1.408,0-2.736-0.108-3.983-0.324c-1.251-0.216-2.335-0.47-3.251-0.767l0.735-3.244c0.802,0.293,1.788,0.558,2.948,0.784
		c1.164,0.227,2.377,0.345,3.638,0.345c2.384,0.003,4.098-0.436,5.149-1.317c1.049-0.882,1.575-2.283,1.575-4.206V279.505z
		 M428.376,264.029c-0.404-0.105-0.943-0.206-1.619-0.303c-0.673-0.091-1.586-0.139-2.732-0.139
		c-2.154-0.003-3.812,0.648-4.978,1.955c-1.162,1.31-1.746,3.046-1.748,5.21c-0.002,1.202,0.16,2.234,0.491,3.088
		c0.329,0.857,0.772,1.565,1.331,2.126c0.561,0.565,1.206,0.979,1.936,1.248c0.732,0.268,1.488,0.401,2.262,0.401
		c1.063,0.003,2.039-0.136,2.927-0.415c0.894-0.279,1.598-0.606,2.115-0.983L428.376,264.029z"/>
	<path fill="#121212" d="M437.538,271.214c0.003-1.843,0.293-3.45,0.868-4.827c0.575-1.377,1.338-2.52,2.286-3.426
		c0.948-0.91,2.039-1.589,3.279-2.042c1.234-0.453,2.495-0.68,3.788-0.676c3.014,0.004,5.325,0.882,6.931,2.635
		c1.603,1.753,2.405,4.419,2.401,7.998c0,0.16,0,0.369,0,0.624s-0.017,0.488-0.045,0.7l-15.33-0.017
		c0.167,2.164,0.843,3.809,2.018,4.931c1.174,1.126,3.014,1.687,5.513,1.69c1.404,0.004,2.589-0.108,3.551-0.335
		s1.687-0.446,2.175-0.659l0.558,3.126c-0.488,0.24-1.342,0.495-2.565,0.76c-1.22,0.265-2.603,0.397-4.154,0.397
		c-1.952-0.003-3.638-0.279-5.06-0.829c-1.422-0.547-2.593-1.303-3.506-2.269c-0.92-0.962-1.603-2.105-2.042-3.429
		C437.758,274.243,437.538,272.793,437.538,271.214z M452.917,269.19c0.028-1.687-0.422-3.067-1.352-4.15
		c-0.93-1.084-2.216-1.627-3.851-1.627c-0.92-0.003-1.732,0.164-2.436,0.495c-0.707,0.335-1.3,0.77-1.788,1.303
		c-0.491,0.533-0.871,1.15-1.143,1.844c-0.275,0.693-0.457,1.401-0.54,2.122L452.917,269.19z M452.892,252.874l-6.081,5.485
		l-2.021-1.687l5.52-6.168L452.892,252.874z"/>
	<path fill="#121212" d="M482.155,271.228c0,1.655-0.261,3.15-0.781,4.488c-0.519,1.335-1.244,2.481-2.178,3.447
		c-0.937,0.958-2.049,1.697-3.338,2.216c-1.293,0.523-2.701,0.781-4.22,0.781c-1.523-0.003-2.931-0.265-4.224-0.788
		c-1.289-0.523-2.405-1.265-3.332-2.227c-0.934-0.965-1.659-2.115-2.171-3.453c-0.519-1.335-0.774-2.833-0.774-4.488
		c0.003-1.631,0.261-3.122,0.784-4.471c0.516-1.349,1.241-2.502,2.178-3.464c0.93-0.962,2.046-1.701,3.339-2.22
		c1.293-0.519,2.701-0.781,4.224-0.777c1.519,0,2.927,0.265,4.22,0.784c1.286,0.523,2.398,1.265,3.332,2.23
		c0.93,0.962,1.655,2.119,2.171,3.471C481.9,268.106,482.158,269.597,482.155,271.228z M477.976,271.221
		c0.003-2.349-0.561-4.217-1.694-5.593c-1.136-1.376-2.673-2.066-4.624-2.07c-1.955-0.004-3.502,0.683-4.635,2.06
		c-1.133,1.376-1.704,3.241-1.708,5.59c-0.003,2.352,0.565,4.217,1.694,5.597c1.133,1.377,2.676,2.063,4.631,2.067
		c1.952,0.003,3.492-0.683,4.628-2.056C477.405,275.438,477.973,273.574,477.976,271.221z"/>
	<path fill="#121212" d="M487.333,261.412c0.917-0.213,2.133-0.439,3.642-0.68c1.505-0.237,3.251-0.355,5.231-0.352
		c1.436,0,2.642,0.181,3.617,0.544c0.972,0.362,1.791,0.892,2.453,1.586c0.199-0.132,0.516-0.321,0.948-0.561
		c0.429-0.237,0.962-0.47,1.593-0.697c0.634-0.227,1.338-0.425,2.112-0.599c0.777-0.174,1.61-0.258,2.499-0.258
		c1.722,0.003,3.129,0.237,4.22,0.707c1.087,0.467,1.941,1.129,2.558,1.986c0.62,0.857,1.032,1.871,1.248,3.049
		c0.216,1.174,0.321,2.457,0.321,3.847l-0.014,11.706l-4.008-0.003l0.01-10.904c0.003-1.23-0.059-2.286-0.188-3.168
		c-0.125-0.882-0.373-1.617-0.728-2.206c-0.362-0.589-0.85-1.025-1.464-1.303c-0.617-0.282-1.411-0.422-2.387-0.425
		c-1.352,0-2.464,0.167-3.339,0.498c-0.882,0.331-1.474,0.634-1.791,0.899c0.23,0.697,0.401,1.457,0.512,2.286
		c0.115,0.829,0.174,1.697,0.174,2.607l-0.014,11.706l-4.008-0.003l0.01-10.904c0.003-1.23-0.066-2.286-0.209-3.171
		c-0.143-0.882-0.394-1.613-0.753-2.202c-0.359-0.589-0.847-1.025-1.46-1.307c-0.617-0.279-1.397-0.422-2.345-0.422
		c-0.404,0-0.833,0.014-1.293,0.038c-0.46,0.024-0.899,0.059-1.314,0.098s-0.798,0.087-1.14,0.139
		c-0.345,0.056-0.575,0.094-0.69,0.122l-0.021,17.598l-4.004-0.007L487.333,261.412z"/>
	<path fill="#121212" d="M531.176,260.338c1.607,0.003,2.962,0.199,4.07,0.585c1.101,0.39,1.99,0.941,2.666,1.648
		c0.673,0.707,1.154,1.551,1.439,2.527c0.286,0.976,0.429,2.053,0.425,3.227l-0.014,13.03c-0.345,0.052-0.826,0.125-1.443,0.216
		c-0.617,0.094-1.314,0.181-2.087,0.261c-0.777,0.077-1.614,0.15-2.52,0.216c-0.906,0.066-1.802,0.098-2.69,0.098
		c-1.265,0-2.429-0.122-3.488-0.366c-1.063-0.24-1.983-0.624-2.757-1.147c-0.777-0.519-1.377-1.209-1.805-2.067
		c-0.432-0.854-0.648-1.882-0.645-3.084c0-1.15,0.254-2.14,0.76-2.969c0.502-0.826,1.181-1.495,2.046-2s1.868-0.878,3.018-1.119
		c1.146-0.24,2.352-0.359,3.617-0.355c0.401,0,0.819,0.021,1.248,0.059c0.432,0.042,0.84,0.094,1.227,0.164
		c0.39,0.066,0.725,0.125,1.014,0.181c0.286,0.052,0.488,0.094,0.603,0.122v-1.042c0-0.617-0.07-1.223-0.213-1.826
		s-0.404-1.136-0.777-1.607c-0.373-0.467-0.878-0.843-1.523-1.122c-0.648-0.282-1.488-0.422-2.52-0.425
		c-1.321,0-2.478,0.087-3.467,0.258s-1.729,0.352-2.22,0.54l-0.47-3.091c0.519-0.209,1.38-0.418,2.586-0.617
		S529.768,260.338,531.176,260.338z M531.5,279.02c0.944,0,1.784-0.017,2.52-0.056c0.732-0.042,1.342-0.115,1.83-0.22l0.007-6.213
		c-0.289-0.132-0.756-0.247-1.401-0.342c-0.645-0.098-1.429-0.143-2.345-0.146c-0.603,0-1.244,0.038-1.917,0.118
		c-0.676,0.08-1.293,0.247-1.854,0.502c-0.558,0.251-1.025,0.599-1.401,1.038c-0.376,0.443-0.561,1.021-0.561,1.742
		c-0.003,1.338,0.457,2.269,1.373,2.788C528.67,278.756,529.918,279.02,531.5,279.02z"/>
	<path fill="#121212" d="M549.695,260.882l8.482,0.007l-0.003,3.129l-8.482-0.01l-0.014,9.622c0,1.042,0.084,1.903,0.258,2.586
		c0.167,0.683,0.425,1.216,0.77,1.603c0.345,0.39,0.777,0.662,1.293,0.822c0.516,0.164,1.119,0.244,1.809,0.244
		c1.206,0,2.174-0.122,2.906-0.376c0.732-0.254,1.241-0.432,1.53-0.54l0.77,3.088c-0.401,0.188-1.105,0.418-2.108,0.7
		c-1.007,0.279-2.154,0.418-3.447,0.415c-1.523,0-2.777-0.181-3.767-0.544c-0.99-0.362-1.788-0.903-2.391-1.627
		c-0.599-0.721-1.025-1.61-1.265-2.666c-0.244-1.056-0.366-2.279-0.366-3.67l0.024-18.602l4.008-0.634L549.695,260.882z"/>
	<path fill="#121212" d="M564.766,257.129c-0.718,0-1.328-0.22-1.83-0.662c-0.502-0.443-0.753-1.035-0.749-1.784
		c0-0.749,0.251-1.345,0.753-1.784c0.502-0.439,1.112-0.659,1.83-0.659s1.328,0.22,1.83,0.662c0.502,0.443,0.756,1.038,0.756,1.784
		c-0.003,0.749-0.258,1.345-0.76,1.784S565.484,257.129,564.766,257.129z M566.763,281.746l-4.004-0.003l0.024-20.846l4.004,0.003
		L566.763,281.746z"/>
	<path fill="#121212" d="M571.942,271.368c0.003-1.683,0.268-3.199,0.805-4.548c0.53-1.349,1.282-2.488,2.265-3.426
		c0.976-0.934,2.154-1.652,3.534-2.161c1.377-0.505,2.927-0.756,4.652-0.756c1.864,0.003,3.509,0.132,4.931,0.387
		c1.418,0.258,2.6,0.491,3.548,0.704l-0.031,27.621l-4.004-0.003l0.01-8.336c-0.488,0.293-1.227,0.599-2.22,0.917
		c-0.99,0.321-2.129,0.481-3.422,0.477c-1.61,0-3.035-0.268-4.286-0.805c-1.248-0.537-2.303-1.286-3.161-2.248
		c-0.861-0.965-1.516-2.115-1.955-3.45C572.161,274.403,571.942,272.946,571.942,271.368z M576.12,271.375
		c0,1.07,0.115,2.063,0.341,2.987c0.23,0.92,0.603,1.725,1.115,2.408c0.516,0.68,1.185,1.216,2.004,1.603
		c0.819,0.39,1.802,0.582,2.948,0.585c1.091,0,2.098-0.171,3.014-0.519c0.92-0.345,1.624-0.704,2.112-1.077l0.017-13.148
		c-0.404-0.108-0.941-0.202-1.617-0.282c-0.673-0.084-1.614-0.125-2.819-0.125c-2.154-0.003-3.879,0.652-5.172,1.958
		C576.772,267.071,576.124,268.942,576.12,271.375z"/>
	<path fill="#121212" d="M615.9,281.202c-0.92,0.213-2.133,0.439-3.642,0.676c-1.505,0.24-3.251,0.359-5.231,0.355
		c-1.721-0.003-3.171-0.237-4.349-0.707c-1.178-0.467-2.126-1.129-2.84-1.986c-0.718-0.857-1.234-1.864-1.547-3.028
		s-0.474-2.453-0.47-3.872l0.014-11.706l4.008,0.007l-0.014,10.904c-0.003,2.54,0.425,4.356,1.282,5.454
		c0.864,1.094,2.314,1.645,4.353,1.648c0.429,0,0.875-0.014,1.335-0.042c0.456-0.024,0.889-0.056,1.289-0.098
		c0.404-0.038,0.77-0.077,1.101-0.118c0.328-0.038,0.565-0.087,0.707-0.139l0.021-17.598l4.008,0.003L615.9,281.202z"/>
	<path fill="#121212" d="M621.078,271.424c0.003-1.844,0.293-3.45,0.868-4.827c0.575-1.377,1.338-2.52,2.286-3.426
		c0.948-0.91,2.039-1.589,3.279-2.042c1.234-0.453,2.495-0.68,3.788-0.676c3.014,0.003,5.325,0.882,6.931,2.635
		c1.603,1.753,2.405,4.419,2.401,7.998c0,0.16,0,0.369,0,0.624s-0.017,0.488-0.045,0.7l-15.33-0.017
		c0.167,2.164,0.843,3.809,2.018,4.935c1.174,1.122,3.014,1.683,5.513,1.687c1.404,0.003,2.589-0.108,3.551-0.335
		c0.962-0.227,1.687-0.446,2.174-0.659l0.558,3.126c-0.488,0.24-1.342,0.495-2.565,0.76c-1.22,0.265-2.603,0.397-4.154,0.397
		c-1.952-0.004-3.638-0.279-5.06-0.829c-1.422-0.547-2.593-1.303-3.506-2.269c-0.92-0.962-1.603-2.105-2.042-3.429
		C621.298,274.452,621.078,273.002,621.078,271.424z M636.457,269.399c0.028-1.683-0.422-3.067-1.352-4.15
		c-0.93-1.084-2.216-1.627-3.851-1.627c-0.92,0-1.732,0.164-2.436,0.498c-0.707,0.331-1.3,0.767-1.788,1.3
		c-0.491,0.533-0.871,1.15-1.143,1.843c-0.275,0.693-0.456,1.401-0.54,2.122L636.457,269.399z"/>
	<path fill="#121212" d="M662.649,260.488c1.607,0.003,2.962,0.199,4.07,0.585c1.101,0.39,1.99,0.941,2.666,1.648
		c0.673,0.707,1.153,1.551,1.439,2.526c0.286,0.976,0.429,2.053,0.425,3.227l-0.014,13.03c-0.345,0.052-0.826,0.125-1.443,0.216
		c-0.617,0.094-1.314,0.181-2.087,0.261c-0.777,0.077-1.613,0.15-2.52,0.216s-1.802,0.098-2.69,0.098
		c-1.265,0-2.429-0.122-3.488-0.366c-1.063-0.24-1.983-0.624-2.756-1.147c-0.777-0.519-1.377-1.209-1.805-2.066
		c-0.432-0.854-0.648-1.882-0.645-3.084c0-1.15,0.254-2.14,0.76-2.969c0.502-0.826,1.181-1.495,2.046-2
		c0.864-0.505,1.868-0.878,3.018-1.119c1.147-0.24,2.352-0.359,3.617-0.355c0.401,0,0.819,0.021,1.248,0.059
		c0.432,0.042,0.84,0.094,1.227,0.164c0.39,0.066,0.725,0.125,1.014,0.181c0.286,0.056,0.488,0.094,0.603,0.122v-1.042
		c0-0.617-0.07-1.223-0.213-1.826s-0.404-1.136-0.777-1.607c-0.373-0.467-0.878-0.843-1.523-1.122
		c-0.648-0.282-1.488-0.422-2.52-0.425c-1.321,0-2.478,0.087-3.467,0.258c-0.99,0.174-1.729,0.352-2.22,0.54l-0.47-3.091
		c0.519-0.209,1.38-0.418,2.586-0.617S661.241,260.488,662.649,260.488z M662.973,279.17c0.944,0,1.784-0.017,2.52-0.056
		c0.732-0.042,1.342-0.115,1.83-0.22l0.007-6.213c-0.289-0.132-0.756-0.247-1.401-0.342c-0.645-0.098-1.429-0.143-2.345-0.146
		c-0.603,0-1.244,0.038-1.917,0.118c-0.676,0.08-1.293,0.247-1.854,0.502c-0.558,0.251-1.025,0.599-1.401,1.038
		c-0.376,0.443-0.561,1.025-0.561,1.746c-0.003,1.335,0.456,2.265,1.373,2.784C660.143,278.905,661.391,279.17,662.973,279.17z
		 M660.722,250.744l5.503,6.179l-2.025,1.683l-6.067-5.499L660.722,250.744z"/>
	<path fill="#121212" d="M693.584,282.293c-2.467-0.059-4.22-0.554-5.252-1.492c-1.035-0.934-1.547-2.394-1.544-4.37l0.028-25.018
		l4.004-0.634l-0.028,25.056c0,0.613,0.056,1.122,0.171,1.523c0.112,0.401,0.3,0.721,0.558,0.962s0.603,0.422,1.035,0.544
		c0.429,0.122,0.962,0.22,1.593,0.3L693.584,282.293z"/>
	<path fill="#121212" d="M705.411,260.537c1.607,0.004,2.962,0.199,4.07,0.585c1.101,0.39,1.99,0.941,2.666,1.648
		c0.673,0.707,1.153,1.551,1.439,2.527s0.429,2.053,0.425,3.227l-0.014,13.03c-0.345,0.052-0.826,0.125-1.443,0.216
		c-0.617,0.094-1.314,0.181-2.087,0.261c-0.777,0.077-1.614,0.15-2.52,0.216c-0.906,0.066-1.802,0.098-2.69,0.098
		c-1.265,0-2.429-0.122-3.488-0.366c-1.063-0.24-1.983-0.624-2.756-1.147c-0.777-0.519-1.377-1.209-1.805-2.067
		c-0.432-0.854-0.648-1.882-0.645-3.084c0-1.15,0.254-2.14,0.76-2.969c0.502-0.826,1.181-1.495,2.046-2
		c0.864-0.505,1.868-0.878,3.018-1.119c1.147-0.24,2.352-0.359,3.617-0.355c0.401,0,0.819,0.021,1.248,0.059
		c0.432,0.042,0.84,0.094,1.227,0.164c0.39,0.066,0.725,0.125,1.014,0.181c0.286,0.052,0.488,0.094,0.603,0.122v-1.042
		c0-0.617-0.07-1.223-0.213-1.826s-0.404-1.136-0.777-1.607c-0.373-0.467-0.878-0.843-1.523-1.122
		c-0.648-0.282-1.488-0.422-2.52-0.425c-1.321,0-2.478,0.087-3.467,0.258c-0.99,0.171-1.729,0.352-2.22,0.54l-0.47-3.091
		c0.519-0.209,1.38-0.418,2.586-0.617S704.004,260.537,705.411,260.537z M705.736,279.219c0.944,0,1.784-0.017,2.52-0.059
		c0.732-0.038,1.342-0.112,1.83-0.216l0.007-6.213c-0.289-0.132-0.756-0.247-1.401-0.342c-0.645-0.098-1.429-0.143-2.345-0.146
		c-0.603,0-1.244,0.038-1.917,0.118c-0.676,0.08-1.293,0.247-1.854,0.502c-0.558,0.251-1.025,0.599-1.401,1.038
		c-0.376,0.443-0.561,1.021-0.561,1.742c-0.003,1.338,0.456,2.269,1.373,2.788C702.906,278.954,704.153,279.219,705.736,279.219z"/>
	<path fill="#121212" d="M739.361,282.425c-1.809-0.003-3.394-0.272-4.757-0.808c-1.363-0.537-2.513-1.286-3.443-2.248
		c-0.93-0.965-1.627-2.108-2.084-3.433c-0.46-1.321-0.687-2.784-0.687-4.387c0.003-1.603,0.254-3.074,0.763-4.412
		c0.502-1.335,1.209-2.488,2.133-3.464c0.92-0.976,2.046-1.735,3.384-2.279c1.335-0.547,2.823-0.819,4.457-0.819
		c1.007,0,2.011,0.084,3.014,0.244c1.007,0.16,1.969,0.418,2.882,0.767l-0.906,3.164c-0.599-0.265-1.296-0.481-2.087-0.641
		c-0.788-0.164-1.627-0.244-2.516-0.244c-2.241-0.003-3.959,0.648-5.151,1.958c-1.192,1.307-1.791,3.217-1.795,5.729
		c0,1.122,0.132,2.15,0.404,3.088c0.275,0.937,0.704,1.739,1.289,2.408c0.589,0.669,1.342,1.181,2.262,1.544
		c0.917,0.362,2.039,0.544,3.359,0.544c1.059,0.003,2.025-0.087,2.885-0.275c0.861-0.185,1.533-0.387,2.025-0.599l0.554,3.129
		c-0.23,0.132-0.558,0.258-0.99,0.376c-0.432,0.122-0.92,0.23-1.464,0.321c-0.547,0.094-1.129,0.171-1.746,0.24
		C740.532,282.394,739.936,282.425,739.361,282.425z"/>
	<path fill="#121212" d="M756.444,260.596c1.607,0,2.962,0.195,4.07,0.585c1.101,0.387,1.99,0.937,2.666,1.645
		c0.673,0.711,1.154,1.554,1.439,2.527c0.286,0.979,0.429,2.056,0.425,3.23l-0.014,13.03c-0.345,0.052-0.826,0.125-1.443,0.216
		c-0.617,0.094-1.314,0.181-2.087,0.258c-0.777,0.08-1.614,0.153-2.52,0.22c-0.906,0.066-1.802,0.098-2.69,0.098
		c-1.265-0.003-2.429-0.125-3.488-0.366c-1.063-0.24-1.983-0.624-2.757-1.147c-0.777-0.523-1.377-1.209-1.805-2.066
		c-0.432-0.854-0.648-1.885-0.645-3.088c0-1.147,0.254-2.136,0.76-2.966c0.502-0.826,1.181-1.495,2.046-2s1.868-0.882,3.018-1.119
		c1.146-0.24,2.352-0.359,3.617-0.359c0.401,0.003,0.819,0.021,1.248,0.063c0.432,0.042,0.84,0.094,1.227,0.16
		c0.39,0.07,0.725,0.129,1.014,0.185c0.286,0.052,0.488,0.094,0.603,0.118v-1.042c0-0.613-0.07-1.223-0.213-1.823
		c-0.143-0.603-0.404-1.136-0.777-1.607c-0.373-0.467-0.878-0.843-1.523-1.126c-0.648-0.279-1.488-0.422-2.52-0.422
		c-1.321,0-2.478,0.084-3.467,0.258c-0.99,0.171-1.729,0.352-2.22,0.537l-0.47-3.088c0.519-0.213,1.38-0.418,2.586-0.617
		S755.036,260.593,756.444,260.596z M756.768,279.278c0.944,0,1.784-0.021,2.52-0.059c0.732-0.038,1.342-0.112,1.83-0.22
		l0.007-6.213c-0.289-0.132-0.756-0.244-1.401-0.342c-0.645-0.094-1.429-0.143-2.345-0.143c-0.603,0-1.244,0.038-1.917,0.118
		c-0.676,0.08-1.293,0.247-1.854,0.498c-0.558,0.254-1.025,0.599-1.401,1.042c-0.376,0.439-0.561,1.021-0.561,1.742
		c-0.003,1.338,0.457,2.265,1.373,2.788C753.938,279.014,755.186,279.275,756.768,279.278z"/>
	<path fill="#121212" d="M779.478,260.701c0.345,0,0.739,0.024,1.185,0.063c0.446,0.042,0.882,0.094,1.314,0.164
		c0.432,0.066,0.826,0.132,1.185,0.199c0.359,0.07,0.624,0.129,0.798,0.181l-0.693,3.248c-0.317-0.108-0.84-0.233-1.572-0.383
		c-0.732-0.146-1.673-0.223-2.823-0.223c-0.746,0-1.485,0.073-2.216,0.216c-0.732,0.15-1.213,0.247-1.443,0.3l-0.021,17.518
		l-4.004-0.003l0.021-19.965c0.944-0.321,2.126-0.617,3.534-0.896C776.15,260.84,777.729,260.701,779.478,260.701z"/>
	<path fill="#121212" d="M791.107,261.157l8.482,0.007l-0.003,3.129l-8.482-0.01l-0.014,9.622c0,1.042,0.084,1.903,0.258,2.586
		c0.167,0.683,0.425,1.216,0.77,1.603c0.345,0.39,0.777,0.662,1.293,0.822c0.516,0.164,1.119,0.244,1.809,0.244
		c1.206,0,2.175-0.122,2.906-0.376s1.241-0.432,1.53-0.54l0.77,3.088c-0.401,0.188-1.105,0.418-2.108,0.7
		c-1.007,0.279-2.154,0.418-3.446,0.415c-1.523,0-2.777-0.181-3.767-0.544s-1.788-0.903-2.391-1.627
		c-0.599-0.721-1.025-1.61-1.265-2.666c-0.244-1.056-0.366-2.279-0.366-3.67l0.024-18.602l4.008-0.634L791.107,261.157z"/>
	<path fill="#121212" d="M802.503,271.633c0.004-1.843,0.293-3.453,0.868-4.83c0.575-1.377,1.338-2.516,2.286-3.426
		c0.948-0.906,2.039-1.586,3.279-2.042c1.234-0.45,2.495-0.676,3.788-0.676c3.014,0.003,5.325,0.882,6.931,2.635
		c1.603,1.753,2.405,4.419,2.401,8.001c0,0.16,0,0.366,0,0.62s-0.017,0.488-0.045,0.7l-15.33-0.017
		c0.167,2.168,0.843,3.809,2.018,4.935c1.174,1.122,3.014,1.687,5.513,1.69c1.404,0,2.589-0.112,3.551-0.338
		c0.962-0.223,1.687-0.446,2.175-0.659l0.558,3.129c-0.488,0.24-1.342,0.491-2.565,0.756c-1.22,0.265-2.603,0.401-4.154,0.397
		c-1.951-0.003-3.638-0.279-5.06-0.829c-1.422-0.547-2.593-1.303-3.506-2.265c-0.92-0.965-1.603-2.108-2.042-3.433
		C802.722,274.657,802.503,273.208,802.503,271.633z M817.881,269.604c0.028-1.683-0.422-3.067-1.352-4.15
		c-0.93-1.084-2.216-1.624-3.851-1.627c-0.92,0-1.732,0.167-2.436,0.498c-0.707,0.335-1.3,0.767-1.788,1.3
		c-0.491,0.537-0.871,1.15-1.143,1.843c-0.275,0.694-0.457,1.404-0.54,2.126L817.881,269.604z"/>
</g>
</svg>
